<?xml version="1.0" encoding="UTF-8"?>
<!DOCTYPE svg PUBLIC "-//W3C//DTD SVG 1.1//EN" "http://www.w3.org/Graphics/SVG/1.1/DTD/svg11.dtd">
<!-- Creator: CorelDRAW 2021.5 -->
<svg xmlns="http://www.w3.org/2000/svg" xml:space="preserve" width="3.0712in" height="3.07121in" version="1.1" style="shape-rendering:geometricPrecision; text-rendering:geometricPrecision; image-rendering:optimizeQuality; fill-rule:evenodd; clip-rule:evenodd"
viewBox="0 0 114.11 114.11"
 xmlns:xlink="http://www.w3.org/1999/xlink"
 xmlns:xodm="http://www.corel.com/coreldraw/odm/2003">
 <defs>
  <style type="text/css">
   <![CDATA[
    .fil0 {fill:#1D1819}
    .fil1 {fill:white}
   ]]>
  </style>
 </defs>
 <g id="Layer_x0020_1">
  <metadata id="CorelCorpID_0Corel-Layer"/>
  <path class="fil0" d="M95.9 114.11l-77.7 0c-10.01,0 -18.2,-8.19 -18.2,-18.2l0 -77.7c0,-10.01 8.19,-18.2 18.2,-18.2l77.7 0c10.01,0 18.2,8.19 18.2,18.2l0 77.7c0,10.01 -8.19,18.2 -18.2,18.2z"/>
  <path class="fil1" d="M46.36 100.11l15.55 0 0 -35.88 11.49 0 2.3 -14.49 -13.79 0 0 -10.96c0,-4.06 3.89,-6.36 7.6,-6.36l6.72 0 0 -12.02 -12.02 -0.53c-11.49,-0.71 -17.85,8.31 -17.85,19.09l0 10.78 -13.08 0 0 14.49 13.08 0 0 35.88z"/>
 </g>
</svg>
