<?xml version="1.0" encoding="UTF-8"?>
<!DOCTYPE svg PUBLIC "-//W3C//DTD SVG 1.1//EN" "http://www.w3.org/Graphics/SVG/1.1/DTD/svg11.dtd">
<!-- Creator: CorelDRAW 2021.5 -->
<svg xmlns="http://www.w3.org/2000/svg" xml:space="preserve" width="3.07123in" height="3.07121in" version="1.1" style="shape-rendering:geometricPrecision; text-rendering:geometricPrecision; image-rendering:optimizeQuality; fill-rule:evenodd; clip-rule:evenodd"
viewBox="0 0 127.78 127.78"
 xmlns:xlink="http://www.w3.org/1999/xlink"
 xmlns:xodm="http://www.corel.com/coreldraw/odm/2003">
 <defs>
  <style type="text/css">
   <![CDATA[
    .fil0 {fill:#1D1819}
    .fil1 {fill:white}
   ]]>
  </style>
 </defs>
 <g id="Layer_x0020_1">
  <metadata id="CorelCorpID_0Corel-Layer"/>
  <g id="_2858634510864">
   <path class="fil0" d="M107.39 127.78l-87.01 0c-11.21,0 -20.38,-9.17 -20.38,-20.38l0 -87.01c0,-11.21 9.17,-20.38 20.38,-20.38l87.01 0c11.21,0 20.38,9.17 20.38,20.38l0 87.01c0,11.21 -9.17,20.38 -20.38,20.38z"/>
   <path class="fil1" d="M45.35 30.27l37.17 0c8.37,0 15.18,6.81 15.18,15.18l0 36.97c0,8.37 -6.81,15.18 -15.18,15.18l-37.17 0c-8.36,0 -15.18,-6.81 -15.18,-15.18l0 -36.97c0,-8.37 6.81,-15.18 15.18,-15.18l0 0zm18.49 19.07l0.19 0c7.98,0 14.59,6.62 14.59,14.59l0 0c0,8.17 -6.62,14.79 -14.59,14.79l-0.19 0c-7.98,0 -14.6,-6.62 -14.6,-14.79l0 0c0,-7.98 6.62,-14.59 14.6,-14.59l0 0zm0 -7.59l0.19 0c12.06,0 22.18,10.12 22.18,22.18l0 0c0,12.26 -10.12,22.18 -22.18,22.18l-0.19 0c-12.06,0 -21.99,-9.92 -21.99,-22.18l0 0c0,-12.07 9.92,-22.18 21.99,-22.18l0 0zm21.99 -4.28l0 0c2.53,0 4.67,2.14 4.67,4.67l0 0c0,2.53 -2.14,4.67 -4.67,4.67l0 0c-2.72,0 -4.67,-2.14 -4.67,-4.67l0 0c0,-2.53 1.95,-4.67 4.67,-4.67l0 0zm-40.67 -14.21l37.55 0c12.06,0 21.99,9.92 21.99,21.99l0 37.36c0,12.06 -9.92,21.99 -21.99,21.99l-37.55 0c-12.06,0 -21.99,-9.92 -21.99,-21.99l0 -37.36c0,-12.06 9.92,-21.99 21.99,-21.99l0 0z"/>
  </g>
 </g>
</svg>
