<?xml version="1.0" encoding="UTF-8"?>
<!DOCTYPE svg PUBLIC "-//W3C//DTD SVG 1.1//EN" "http://www.w3.org/Graphics/SVG/1.1/DTD/svg11.dtd">
<!-- Creator: CorelDRAW 2021.5 -->
<svg xmlns="http://www.w3.org/2000/svg" xml:space="preserve" width="3.07123in" height="3.07121in" version="1.1" style="shape-rendering:geometricPrecision; text-rendering:geometricPrecision; image-rendering:optimizeQuality; fill-rule:evenodd; clip-rule:evenodd"
viewBox="0 0 145.18 145.18"
 xmlns:xlink="http://www.w3.org/1999/xlink"
 xmlns:xodm="http://www.corel.com/coreldraw/odm/2003">
 <defs>
  <style type="text/css">
   <![CDATA[
    .fil0 {fill:#1D1819}
    .fil1 {fill:white}
   ]]>
  </style>
 </defs>
 <g id="Layer_x0020_1">
  <metadata id="CorelCorpID_0Corel-Layer"/>
  <g id="_2858577197312">
   <path class="fil0" d="M122.02 145.18l-98.85 0c-12.74,0 -23.16,-10.42 -23.16,-23.16l0 -98.85c0,-12.74 10.42,-23.16 23.16,-23.16l98.85 0c12.74,0 23.16,10.42 23.16,23.16l0 98.85c0,12.74 -10.42,23.16 -23.16,23.16z"/>
   <path class="fil1" d="M73.34 59.74c-3.58,-18.82 19.06,-30.02 32.4,-16.44 0,0 5.96,-1.67 11.2,-5 0,0 -1.91,6.43 -8.34,10.48 0,0 7.15,-0.95 10.25,-2.86 0,0 -3.1,6.43 -8.82,8.82 3.1,43.13 -43.37,69.34 -81.01,47.89 0,0 18.59,0.95 26.45,-8.1 0,0 -11.44,0.95 -17.16,-12.87 0,0 4.29,1.67 8.58,-0.48 0,0 -13.34,-2.14 -14.53,-18.11 0,0 4.29,3.34 9.05,2.14 0,0 -14.77,-8.82 -6.43,-24.78 0,0 15.73,20.01 38.36,19.3l0 0z"/>
  </g>
 </g>
</svg>
