<?xml version="1.0" encoding="UTF-8"?>
<!DOCTYPE svg PUBLIC "-//W3C//DTD SVG 1.1//EN" "http://www.w3.org/Graphics/SVG/1.1/DTD/svg11.dtd">
<!-- Creator: CorelDRAW 2021.5 -->
<svg xmlns="http://www.w3.org/2000/svg" xml:space="preserve" width="3.07122in" height="3.0712in" version="1.1" style="shape-rendering:geometricPrecision; text-rendering:geometricPrecision; image-rendering:optimizeQuality; fill-rule:evenodd; clip-rule:evenodd"
viewBox="0 0 165.54 165.54"
 xmlns:xlink="http://www.w3.org/1999/xlink"
 xmlns:xodm="http://www.corel.com/coreldraw/odm/2003">
 <defs>
  <style type="text/css">
   <![CDATA[
    .fil0 {fill:#1D1819}
    .fil1 {fill:white}
   ]]>
  </style>
 </defs>
 <g id="Layer_x0020_1">
  <metadata id="CorelCorpID_0Corel-Layer"/>
  <g id="_2858653793792">
   <path class="fil0" d="M139.13 165.54l-112.72 0c-14.53,0 -26.41,-11.88 -26.41,-26.41l0 -112.72c0,-14.53 11.88,-26.41 26.41,-26.41l112.72 0c14.52,0 26.41,11.88 26.41,26.41l0 112.72c0,14.53 -11.89,26.41 -26.41,26.41z"/>
   <path class="fil1" d="M49.78 123.35l7.44 -1.33 4.51 -0.8c6.38,3.45 13.28,5.32 20.98,5.32 24.17,0 43.83,-19.66 43.83,-43.83 0,-24.17 -19.65,-43.83 -43.83,-43.83 -24.17,0 -43.82,19.65 -43.82,43.83 0,8.77 2.66,16.73 6.9,23.64l-0.53 3.98 -1.06 7.97 -0.8 6.11 6.37 -1.06zm32.93 -92.97c28.96,0 52.33,23.37 52.33,52.33 0,28.95 -23.37,52.33 -52.33,52.33 -7.97,0 -15.4,-1.59 -22.04,-4.78l-27.89 4.78 3.72 -27.62 -0.26 -0.53c-3.72,-7.17 -5.85,-15.4 -5.85,-24.17 0,-28.95 23.37,-52.33 52.33,-52.33l0 0zm-18.59 28.42c2.92,-1.86 4.78,-0.53 5.85,2.39l2.66 6.91c0,0 1.86,3.72 -2.92,7.44 -0.79,0.53 -0.79,0.53 -0.53,1.86 1.06,3.19 5.31,12.75 18.86,20.19 1.33,0.8 1.59,0.8 2.92,-0.27 1.06,-1.06 2.39,-2.39 3.45,-3.45 2.39,-2.12 3.72,-2.92 5.85,-1.33 1.59,1.06 3.19,2.39 4.78,3.45 1.59,1.33 4.25,2.92 1.59,6.11l-2.39 2.92c-3.45,4.25 -6.38,4.51 -10.89,3.45 -17.27,-4.52 -30.02,-16.73 -35.6,-34 -1.86,-6.64 0.8,-12.22 6.38,-15.67l0 0z"/>
  </g>
 </g>
</svg>
